<svg xmlns="http://www.w3.org/2000/svg" viewBox="0 0 1860.8 641.27"><defs><style>.cls-1{fill:#1d1d1b;}</style></defs><g id="Capa_2" data-name="Capa 2"><g id="Capa_3" data-name="Capa 3"><path class="cls-1" d="M1860.8,0H1242.31c-6.78,105.18-69.43,158.84-229.28,150.7a12,12,0,0,1-10.9-10L987.31,27.79,967.7,98.08c-22-5.54-46.08-6.38-73.56,0l-18.8-66.71L857.78,140.72a11.55,11.55,0,0,1-10.44,9.91C622.75,170.55,622.09,0,622.09,0H0C204.72,81.48,310.2,208.83,274.62,377.6H293V342.82h5.85v4.93h1.53V335.51h15v15.24h6.73V337.82h5.28v13.75h3.14V313.49h20.59V300.85h12.86v4.62H370v-8.86h9.33v8.86h9.33v32.35h3.27V290.55h10.31v-3.24h3.24V297.9h7v8.53h3.67V284.52h6.62v-5.11l8.81-15.92V249.94h2.78v13.54l8.81,15.93v5.11h1.48V261.63l28.17,0v36.82h14.61v13.66h10.87V286.81h17.25v4.67h4.2V273.32h5.94v-4.23h6.6v4.23h6.09v49.4h4.27V249.94l1.91-7,2.24,7v4.69h3.67v-5.13h5.66v5.14h10.3v-8.4l1.83-3.26,2.42,3.26v8.4h1.78v-5.14H576V326h2.86V320.4l33.17,0V274.54h13.45v12.28h6.63v5.59h3.73v12.25h4.43v6.41h4.45V291.48h10.4v-3.27h8.53v4.67h9.52v21.46h3.29v4.19h7v17h2.33v-3.92h5.14V348h3.75v-5.66H697v5.19h4.68v-8h3.68v-2.8h3.81v3.38h5v2.72H720v4.93h1.53l0-12.24h15v15.24h6.72V337.82h5.27v13.75H752l0-38.08h20.25V300.85h12.89v4.62h6v-8.86h9.29v8.86h9.36v32.15h3.27V290.41H823.4v-3.1h3.26V297.9h6.92v8.53h3.74V284.52H844v-5.11l8.76-15.92V250l2.78,0v13.54l8.75,15.93v5.21h1.54v-23l28.22,0v36.81h14.43v13.66h11.09V286.82h17.16v4.67h3.9V273.32h6.21v-4.23h6.63v4.23H960v49.41l3.3,0,0-72.84,2.33-7,2.33,7v4.73h3.67l0-5.17h5.68v5.17h10.27v-8.44l1.82-3.26,2.4,3.26v8.44h1.83V249.5h3.41V326h3V320.4l33.17,0V274.54h13.52v12.28h6.52v5.59h3.77v12.25h4.41v6.41h4.45V291.35h10.71v-3.14h8.19v4.67h9.55v21.46h3.29v4.19h7v17H1107v-3.94h5.13V348h3.75v-5.66h2.34v5.19h4.31v-8h4v-2.8h3.81v3.38h5v2.54h5.8v5.11h1.56V335.53h15v15.22h6.69V337.82h5.23l0,13.75H1173V313.49h20.45V300.85H1206v4.62h6.37v-8.86h9.33v8.86H1231v32.19l3.26,0V290.41h10.36v-3.1h3.2V297.9h7v8.53h3.67V284.52h6.67v-5.11l8.76-15.92V250l2.77,0v13.54l8.67,15.93v5.11H1287V261.63l28.34.08v36.76l14.44.07v13.59h11V286.82h17.16v4.54h3.74v-18H1368v-4.23h6.63v4.23h6.59v49.41l4.2.07V249.94l1.66-7,2.06,7v4.73h3.67v-5.18h5.72v5.18h10.25v-8.44l2.14-3.26,2.08,3.26v8.44l1.83,0,0-5.15h3.44l.16,76.51h2.86V320.4l32.86,0V274.59h13.76v4.81h6.63v13h3.73v12.25h4.41v6.44l4.45,0V291.43h10.59v-3.22h8.14v4.67h9.72v21.46h3.27v4.19h6.91v17h2.42v-3.94h5.13V348h3.75v-5.66h2.35v5.19h4.3v-7.95h4v-2.85h3.81v3.38h5v37.5H1590C1539.09,197.32,1660.33,77.71,1860.8,0Z"/><path class="cls-1" d="M601.05,433.78V392.42A15.46,15.46,0,0,0,585.59,377H535.72V538.55H585.6a15.45,15.45,0,0,0,15.45-15.45V482.16A15.46,15.46,0,0,0,596.26,471l-13.88-13.22,13.69-12.62A15.48,15.48,0,0,0,601.05,433.78Zm-42-34.65h18.08v32.09L559.05,445.8Zm21,117.25h-21v-45.5l21,12.17Z"/><path class="cls-1" d="M793.92,593.06V574.24a7,7,0,0,0-7-7H764.33v73.55h22.59a7,7,0,0,0,7-7V615.09a7,7,0,0,0-2.17-5.09l-6.29-6,6.2-5.75A7,7,0,0,0,793.92,593.06Zm-19-15.77h8.19V591.9l-8.19,6.63Zm9.49,53.37H774.9V610l9.49,5.54Z"/><path class="cls-1" d="M1120.15,430.57V389.22a15.46,15.46,0,0,0-15.45-15.46h-49.88V535.34h49.89a15.45,15.45,0,0,0,15.44-15.45V479a15.46,15.46,0,0,0-4.79-11.19l-13.87-13.22,13.69-12.62A15.46,15.46,0,0,0,1120.15,430.57Zm-42-34.65h18.08V428l-18.08,14.58Zm20.95,117.25h-20.95v-45.5l20.95,12.17Z"/><path class="cls-1" d="M1109.87,567.21h-22.59v73.18h22.59a7,7,0,0,0,7-7V574.21A7,7,0,0,0,1109.87,567.21Zm-2.53,56.15a7,7,0,0,1-7,7h-2.49v-53.1h2.49a7,7,0,0,1,7,7Z"/><path class="cls-1" d="M1169.1,567.86h-22.59V641h22.59a7,7,0,0,0,7-7V574.86A7,7,0,0,0,1169.1,567.86ZM1166.57,624a7,7,0,0,1-7,7h-2.49V577.9h2.49a7,7,0,0,1,7,7Z"/><path class="cls-1" d="M677.46,377H640.71L620.88,538.55h25.67l.58-29.17h26.25l.58,29.17h26.83Zm-28,109.66,8.75-64.16,12.25,64.16Z"/><path class="cls-1" d="M965.16,568.09H948.52l-9,73.18h11.62l.26-13.21h11.89l.27,13.21h12.15Zm-12.68,49.67,4-29.06L962,617.76Z"/><path class="cls-1" d="M1206,568.09h-16.65l-9,73.18H1192l.27-13.21h11.89l.26,13.21h12.15Zm-12.68,49.67,4-29.06,5.55,29.06Z"/><polygon class="cls-1" points="731.71 538.54 751.54 538.54 751.54 399.13 769.63 399.13 769.63 376.97 714.21 376.97 714.21 399.13 732.29 399.13 731.71 538.54"/><rect class="cls-1" x="787.13" y="376.97" width="19.83" height="159.24"/><rect class="cls-1" x="1127.79" y="567.17" width="8.98" height="72.12"/><polygon class="cls-1" points="825.62 538.54 846.62 538.54 846.62 456.59 858.29 486.63 872.92 456.59 872.87 536.21 892.71 536.21 892.71 374.63 870.54 374.63 859.16 413.13 845.46 376.97 825.62 376.97 825.62 538.54"/><polygon class="cls-1" points="658.2 640.67 667.71 640.67 667.71 603.55 672.99 617.16 679.62 603.55 679.68 640.84 688.58 640.8 688.7 567.47 678.24 567.47 673.39 583.87 667.18 567.49 658.2 567.49 658.2 640.67"/><polygon class="cls-1" points="1018.32 639.75 1027.83 639.75 1027.83 602.63 1033.11 616.24 1039.74 602.63 1039.8 639.92 1048.7 639.88 1048.81 566.54 1038.35 566.54 1033.51 582.95 1027.3 566.57 1018.32 566.57 1018.32 639.75"/><path class="cls-1" d="M907.29,374.63H931.2V501.21a7.59,7.59,0,0,0,7.59,7.59h0a7.59,7.59,0,0,0,7.58-7.59V374.63H966.2V520.78a15.44,15.44,0,0,1-15.43,15.45l-28,0a15.44,15.44,0,0,1-15.46-15.45Z"/><path class="cls-1" d="M696.88,567.55h10.83v57.33a3.43,3.43,0,0,0,3.43,3.43h0a3.44,3.44,0,0,0,3.44-3.43V567.55h9v66.19a7,7,0,0,1-7,7H703.88a7,7,0,0,1-7-7Z"/><polygon class="cls-1" points="984.45 374.63 1040.19 374.63 1040.19 396.09 1003.9 396.09 1003.9 436.65 1040.19 436.65 1040.19 459.66 1003.66 459.66 1003.9 513.99 1040.19 513.99 1040.19 536.26 984.68 536.26 984.45 374.63"/><polygon class="cls-1" points="731.74 567.2 756.99 567.2 756.99 576.92 740.55 576.92 740.55 595.29 756.99 595.29 756.99 605.71 740.44 605.71 740.55 630.32 756.99 630.32 756.99 640.4 731.85 640.4 731.74 567.2"/><polygon class="cls-1" points="1053.49 566.63 1078.73 566.63 1078.73 576.35 1062.3 576.35 1062.3 594.72 1078.73 594.72 1078.73 605.14 1062.19 605.14 1062.3 629.74 1078.73 629.74 1078.73 639.83 1053.6 639.83 1053.49 566.63"/><polygon class="cls-1" points="835.49 567.85 860.74 567.85 860.74 577.57 844.3 577.57 844.3 595.94 860.74 595.94 860.74 606.36 844.19 606.36 844.3 630.96 860.74 630.96 860.74 641.05 835.6 641.05 835.49 567.85"/><polygon class="cls-1" points="1204.03 373.73 1259.77 373.73 1259.77 395.19 1223.48 395.19 1223.48 435.75 1259.77 435.75 1259.77 458.76 1223.24 458.76 1223.48 513.09 1259.77 513.09 1259.77 535.36 1204.26 535.36 1204.03 373.73"/><polygon class="cls-1" points="1128.7 373.73 1152.02 373.73 1152.02 513.17 1187.48 513.17 1187.48 535.34 1128.7 535.34 1128.7 373.73"/><polygon class="cls-1" points="802.1 567.47 812.66 567.47 812.66 630.77 828.72 630.77 828.72 640.84 802.1 640.84 802.1 567.47"/><path class="cls-1" d="M1312.37,421.92l20.09-14V381.34a7.61,7.61,0,0,0-7.61-7.61h-41.7a7.62,7.62,0,0,0-7.62,7.61v62.12a15.46,15.46,0,0,0,8.5,13.8l27.12,13.68.72,28.11a7.62,7.62,0,0,1-7.62,7.81h0a7.62,7.62,0,0,1-7.61-7.72l.2-15.42-21.31-10.65v46.84A15.45,15.45,0,0,0,1291,535.36h27.86a15.45,15.45,0,0,0,15.45-15.45V464a15.44,15.44,0,0,0-8.44-13.76l-28.7-14.62V402.08a7.61,7.61,0,0,1,7.7-7.61h0a7.61,7.61,0,0,1,7.52,7.61Z"/><path class="cls-1" d="M887.7,589.38l9.1-6.35V571a3.44,3.44,0,0,0-3.45-3.45H874.47A3.44,3.44,0,0,0,871,571v28.13a7,7,0,0,0,3.85,6.25l12.28,6.19.32,12.73a3.45,3.45,0,0,1-3.44,3.54h0a3.44,3.44,0,0,1-3.45-3.49l.09-7L871,612.54v21.21a7,7,0,0,0,7,7h12.61a7,7,0,0,0,7-7V608.43a7,7,0,0,0-3.82-6.23l-13-6.62V580.39a3.45,3.45,0,0,1,3.48-3.45h0a3.45,3.45,0,0,1,3.41,3.45Z"/></g></g></svg>